<?xml version="1.0" standalone="no"?>
<!DOCTYPE svg PUBLIC "-//W3C//DTD SVG 20010904//EN"
 "http://www.w3.org/TR/2001/REC-SVG-20010904/DTD/svg10.dtd">
<svg version="1.0" xmlns="http://www.w3.org/2000/svg"
 width="300.000000pt" height="361.000000pt" viewBox="0 0 300.000000 361.000000"
 preserveAspectRatio="xMidYMid meet">
<metadata>
Created by potrace 1.10, written by Peter Selinger 2001-2011
</metadata>
<g transform="translate(0.000000,361.000000) scale(0.100000,-0.100000)"
fill="#000000" stroke="none">
<path d="M1434 3474 c-27 -71 -23 -128 15 -216 18 -43 37 -78 42 -78 13 0 11
57 -6 125 -8 33 -14 95 -15 138 0 42 -4 77 -9 77 -5 0 -17 -21 -27 -46z"/>
<path d="M1500 3425 c0 -2 24 -23 54 -45 70 -53 75 -75 42 -172 -38 -108 -33
-132 24 -140 37 -5 39 -49 5 -100 -15 -22 -24 -42 -21 -46 3 -3 8 -3 10 -1 58
67 137 176 142 196 6 20 2 31 -16 45 -12 10 -30 18 -40 18 -9 0 -25 9 -35 20
-16 18 -16 22 -2 65 23 66 12 83 -74 128 -71 36 -89 42 -89 32z m171 -265 c49
-25 58 -45 32 -71 -20 -20 -20 -20 -56 1 -36 21 -44 40 -31 74 8 20 7 20 55
-4z"/>
<path d="M1302 3356 c-63 -92 -64 -122 -12 -235 41 -90 42 -93 29 -143 -10
-44 -10 -53 2 -57 8 -2 33 -23 56 -45 34 -34 42 -50 47 -91 10 -79 30 -140 46
-140 45 0 2 147 -70 240 -55 71 -58 98 -25 190 l28 75 -28 81 c-21 62 -26 94
-23 135 3 30 2 54 -1 54 -3 0 -25 -29 -49 -64z m31 -104 c22 -61 27 -133 9
-139 -12 -5 -62 93 -62 122 0 18 21 65 30 65 3 0 14 -22 23 -48z"/>
<path d="M834 2888 c-489 -494 -535 -551 -634 -780 -109 -252 -139 -450 -110
-728 34 -324 208 -657 457 -875 460 -404 1101 -478 1619 -189 368 206 639 586
710 994 23 134 15 452 -14 560 -51 190 -127 359 -222 492 -81 113 -840 873
-840 841 0 -31 25 -58 381 -418 174 -176 340 -347 369 -380 138 -159 227 -346
277 -578 26 -118 25 -438 -1 -557 -40 -182 -123 -369 -233 -521 -69 -96 -221
-246 -323 -318 -351 -247 -807 -313 -1218 -175 -386 128 -716 454 -856 842
-49 137 -69 261 -70 442 -2 240 34 401 134 602 100 200 134 241 599 713 120
121 243 248 274 283 52 58 70 92 49 92 -5 0 -162 -154 -348 -342z"/>
<path d="M1469 3083 c-34 -100 -31 -164 10 -236 l33 -57 29 82 c35 101 35 106
5 117 -30 12 -36 29 -36 102 0 32 -4 59 -9 59 -5 0 -20 -30 -32 -67z m49 -126
c14 -29 0 -73 -19 -61 -16 10 -30 55 -23 76 8 25 26 18 42 -15z"/>
<path d="M1860 2877 c0 -8 10 -21 22 -29 l22 -15 -22 -51 c-27 -62 -28 -103
-3 -126 25 -22 40 -2 17 23 -21 23 -20 36 4 89 l20 44 85 -78 c47 -42 85 -85
85 -93 0 -9 -25 -41 -55 -71 -30 -30 -55 -58 -55 -62 0 -22 32 -1 93 60 l68
69 -113 107 c-132 126 -168 154 -168 133z"/>
<path d="M1984 2839 c-10 -17 13 -36 27 -22 12 12 4 33 -11 33 -5 0 -12 -5
-16 -11z"/>
<path d="M918 2770 l-40 -41 34 -37 c52 -58 96 -94 103 -83 3 6 -17 35 -45 66
-27 30 -50 60 -50 65 0 5 11 17 25 26 23 15 26 15 52 -4 15 -11 39 -32 52 -46
22 -24 67 -37 59 -18 -7 19 -119 112 -134 112 -9 0 -34 -18 -56 -40z"/>
<path d="M830 2683 c0 -4 21 -29 48 -56 l47 -49 -75 6 c-41 4 -83 9 -92 12
-33 10 -19 -21 37 -79 50 -52 75 -69 75 -50 0 3 -21 25 -47 49 -27 23 -46 44
-43 47 3 2 39 0 81 -6 118 -15 123 -9 48 68 -59 61 -79 75 -79 58z"/>
<path d="M988 2413 c-119 -120 -237 -243 -261 -273 -142 -176 -194 -323 -204
-565 -5 -127 -3 -149 20 -241 46 -186 133 -339 267 -471 297 -293 729 -363
1108 -181 86 42 162 100 254 194 138 143 180 209 232 366 97 290 63 575 -99
825 -46 71 -104 135 -298 325 l-242 236 -3 -44 c-2 -24 2 -53 8 -64 14 -27 0
-46 -41 -55 -31 -7 -69 -54 -69 -86 0 -37 -32 -119 -55 -141 -14 -12 -25 -31
-25 -40 0 -10 -5 -18 -11 -18 -7 0 -9 10 -4 28 4 15 9 61 12 102 3 57 1 80
-11 95 -14 20 -15 19 -25 -8 -6 -16 -11 -74 -11 -131 0 -73 -4 -108 -14 -122
-26 -35 -38 -2 -46 131 -7 117 -18 160 -37 141 -5 -4 -10 -52 -11 -107 -2 -54
-8 -99 -12 -99 -19 0 -51 62 -65 126 -9 38 -18 77 -21 87 -7 21 -54 47 -87 47
-35 0 -52 23 -37 50 6 11 10 41 8 66 l-3 44 -217 -217z m187 113 c-10 -49 8
-75 56 -82 22 -4 47 -13 54 -21 22 -22 46 -123 29 -123 -3 0 -42 34 -87 75
-60 56 -87 75 -108 75 -22 0 -60 -31 -189 -156 -88 -86 -163 -154 -166 -151
-5 5 402 417 412 417 3 0 2 -15 -1 -34z m674 -20 c42 -42 42 -44 21 -51 -13
-4 -60 -43 -106 -87 -81 -78 -84 -80 -84 -52 0 58 19 101 49 114 48 20 75 55
68 90 -4 16 -3 30 1 30 4 0 27 -20 51 -44z m-534 -258 c66 -64 128 -123 138
-130 17 -13 17 -15 -8 -38 l-25 -24 -145 145 c-79 79 -149 145 -154 147 -13 4
-421 -397 -421 -413 0 -21 409 -417 425 -411 8 3 24 -4 37 -14 l23 -20 -28
-25 c-15 -14 -32 -25 -38 -25 -12 0 -384 364 -451 442 l-50 58 202 202 c111
112 224 222 252 246 l50 44 37 -34 c20 -18 90 -86 156 -150z m736 25 c89 -87
197 -198 240 -247 67 -76 77 -92 68 -109 -6 -10 -79 -88 -162 -173 l-150 -154
-24 22 -24 22 147 147 147 147 -40 49 c-23 26 -116 121 -207 211 l-166 164
-38 -30 c-73 -58 -372 -372 -372 -391 0 -10 -9 -29 -20 -42 l-20 -24 -25 28
c-14 15 -25 32 -25 37 0 25 472 500 496 500 8 0 86 -71 175 -157z m-775 -105
l143 -141 -30 -36 c-36 -44 -36 -64 -3 -113 l27 -38 -101 -102 -100 -102 -32
27 c-40 35 -80 35 -120 0 l-32 -26 -145 146 -146 146 31 38 c49 61 338 343
353 343 7 0 77 -64 155 -142z m734 22 c67 -63 151 -148 187 -188 l66 -73 -34
-35 c-18 -19 -37 -34 -41 -34 -4 0 -8 32 -8 71 0 44 -4 68 -10 64 -5 -3 -10
-35 -10 -71 0 -99 -29 -117 -150 -94 -25 4 -56 12 -70 16 -25 7 -25 7 -6 -14
11 -13 31 -22 47 -22 38 0 129 -20 129 -29 0 -3 -31 -37 -69 -75 l-70 -69 -30
26 c-50 42 -68 43 -113 7 l-40 -33 -106 106 c-84 84 -104 109 -94 119 9 9 19
5 45 -20 46 -44 105 -45 149 -2 34 35 56 37 218 19 78 -8 104 -8 115 1 24 20
17 30 -20 30 -22 0 -38 6 -41 14 -9 24 28 77 58 83 33 7 60 33 34 33 -9 0 -33
-7 -53 -15 -44 -19 -43 -19 -43 5 0 11 -11 27 -24 35 -39 26 -91 -5 -115 -68
-8 -21 -17 -27 -41 -27 -16 0 -30 5 -30 10 0 6 6 10 14 10 7 0 19 7 26 15 10
13 10 19 -5 35 -10 11 -28 20 -40 20 -13 0 -30 10 -38 23 -15 21 -16 17 -16
-60 l-1 -83 104 0 c58 0 107 4 111 9 3 5 -9 11 -27 13 -20 2 -34 9 -36 19 -4
22 46 69 74 69 23 0 24 -3 24 -70 l0 -70 -121 0 -120 0 -33 -35 c-31 -32 -36
-34 -64 -24 -44 15 -65 43 -59 76 6 31 -4 56 -37 91 l-21 24 148 145 c82 79
153 143 157 141 4 -2 63 -55 130 -118z m-150 -180 c13 -9 13 -11 0 -20 -8 -5
-24 -7 -35 -4 -26 8 -28 11 -20 23 8 14 35 14 55 1z m-271 -36 c12 -15 21 -33
21 -40 0 -7 -73 -88 -162 -179 l-161 -166 -23 22 -23 22 144 149 c80 82 145
156 145 164 0 20 18 54 30 54 5 0 18 -12 29 -26z m-651 -426 c-4 -16 -315
-318 -328 -318 -14 0 -48 124 -60 218 -15 126 5 300 48 406 l15 38 164 -165
c91 -91 163 -171 161 -179z m1457 260 c23 -79 38 -233 31 -324 -7 -80 -37
-229 -50 -241 -7 -7 -273 252 -307 299 l-20 27 103 99 c161 155 202 191 215
192 7 0 19 -24 28 -52z m-673 -144 c94 -92 154 -144 163 -140 8 3 24 -4 37
-14 l23 -20 -28 -25 c-15 -14 -32 -25 -37 -25 -14 0 -149 122 -259 234 -94 94
-95 95 -76 116 10 11 20 20 23 20 3 0 72 -66 154 -146z m-113 -7 c91 -97 101
-111 85 -120 -11 -5 -59 -50 -107 -100 l-88 -91 -107 107 -107 107 105 105
c58 58 107 105 110 104 3 -1 52 -51 109 -112z m-298 -155 l159 -155 -21 -24
-22 -23 -143 140 c-100 97 -152 142 -173 146 -17 4 -37 14 -46 24 -15 16 -14
19 15 44 26 21 35 24 52 15 11 -6 92 -81 179 -167z m867 -117 c94 -97 176
-184 182 -195 9 -16 1 -30 -48 -87 -65 -75 -355 -359 -408 -400 l-34 -25 -77
70 c-118 107 -253 248 -253 264 0 9 7 21 16 29 13 11 30 -2 122 -93 131 -128
195 -188 203 -188 3 0 97 92 208 205 168 170 200 208 192 222 -20 38 -400 403
-418 403 -11 0 -28 8 -37 19 -16 18 -15 20 15 45 l31 26 67 -59 c37 -33 145
-139 239 -236z m-1202 118 l25 -16 -153 -154 -153 -153 213 -213 213 -212 199
201 c148 149 202 210 206 233 4 17 13 36 21 43 13 10 19 8 39 -15 13 -16 24
-32 24 -38 0 -26 -467 -499 -493 -499 -14 0 -497 483 -497 498 0 10 317 342
326 342 3 0 16 -7 30 -17z m759 -3 c18 -19 15 -23 -129 -170 -80 -82 -146
-158 -146 -168 0 -10 -6 -26 -13 -36 -13 -17 -15 -16 -40 14 -15 17 -27 35
-27 40 0 11 319 340 330 340 4 0 15 -9 25 -20z m-321 -222 c5 -4 -5 -23 -23
-43 -38 -43 -39 -64 -6 -103 14 -17 25 -34 25 -39 0 -4 -65 -73 -144 -152
l-144 -144 -49 40 c-59 50 -333 330 -333 341 0 4 25 32 55 62 66 65 75 60 75
-40 0 -76 18 -110 57 -110 15 0 50 -8 79 -17 50 -15 56 -15 105 0 30 10 84 17
128 17 100 0 127 24 80 71 l-21 21 21 14 c12 9 21 22 21 30 0 12 -5 11 -26 -5
-15 -12 -38 -21 -51 -21 -51 0 -15 -44 52 -65 40 -13 -9 -25 -102 -25 -65 0
-103 -5 -127 -17 -32 -15 -37 -15 -60 0 -16 11 -46 17 -81 17 l-55 0 0 89 c0
107 17 154 84 224 51 53 61 56 84 27 10 -11 31 -23 48 -26 26 -5 38 0 65 24
l34 31 100 -97 c55 -53 104 -100 109 -104z m403 172 c41 -36 69 -38 112 -5 42
30 34 35 208 -137 l128 -128 -47 -47 -48 -48 0 68 c0 63 -1 67 -22 64 -12 -1
-23 3 -23 10 0 24 -15 25 -15 1 0 -14 -9 -33 -20 -43 -19 -18 -20 -17 -20 2 0
53 -71 93 -100 58 -17 -21 -23 -19 -42 15 -19 33 -46 44 -28 11 5 -11 10 -33
10 -50 0 -40 31 -42 65 -5 42 45 82 12 73 -62 -3 -29 -4 -29 -82 -36 -44 -4
-82 -5 -84 -3 -3 2 -2 11 1 20 5 11 22 15 67 15 62 0 82 13 64 41 -5 9 -10 6
-15 -9 -7 -19 -16 -22 -64 -22 l-55 0 0 49 c0 54 -7 81 -21 81 -5 0 -9 -7 -9
-15 0 -30 -36 -16 -49 20 -6 19 -22 42 -34 52 -49 40 -50 48 -21 92 15 23 29
41 32 41 2 0 20 -13 39 -30z m-107 -69 c0 -5 16 -28 36 -52 34 -41 35 -46 29
-97 -4 -36 -3 -58 5 -68 20 -23 40 -17 40 12 0 30 16 64 31 64 6 0 9 -25 7
-62 l-3 -63 -37 -3 c-32 -3 -39 1 -53 27 -8 17 -20 31 -26 31 -5 0 -3 -13 6
-30 20 -39 19 -56 -7 -74 -42 -30 -81 20 -58 75 10 23 10 36 2 55 -10 20 -8
28 8 44 22 22 40 26 40 10 0 -5 5 -10 10 -10 14 0 12 23 -3 44 -17 23 -50 14
-64 -17 -6 -13 -14 -58 -18 -100 -6 -62 -4 -82 9 -101 25 -40 51 -41 103 -7
26 17 56 31 67 31 29 0 215 11 246 14 20 2 24 8 22 25 -4 24 22 71 38 71 6 0
10 -20 10 -44 0 -61 -18 -76 -88 -77 -31 0 -66 -4 -77 -8 -19 -8 -19 -8 4 -16
13 -4 53 -4 90 0 l66 7 -110 -112 c-60 -61 -122 -120 -137 -131 l-27 -20 -133
129 c-73 71 -142 133 -152 139 -19 10 -18 13 12 47 39 44 40 75 6 115 l-25 30
41 43 c42 43 42 43 35 13 -6 -29 -6 -29 14 -11 13 12 21 31 21 53 0 18 5 33
10 33 6 0 10 -4 10 -9z m-865 -481 c123 -123 141 -157 38 -72 -52 43 -147 146
-167 180 -21 35 21 0 129 -108z m965 -223 c0 -19 -153 -58 -255 -64 -129 -8
-334 20 -387 53 -6 4 57 75 158 175 l169 169 158 -160 c86 -88 157 -166 157
-173z"/>
<path d="M1175 1963 c-25 -28 -27 -28 -145 -28 -100 0 -122 -3 -137 -17 -21
-21 -10 -36 13 -17 12 10 52 14 148 14 123 0 131 1 134 20 2 11 11 28 20 38
26 29 -5 19 -33 -10z"/>
<path d="M1280 1978 c0 -2 11 -25 24 -51 28 -54 24 -80 -16 -110 -21 -15 -35
-17 -86 -11 -59 6 -104 25 -91 38 3 4 36 -1 74 -9 63 -15 69 -15 86 1 23 21
24 33 4 70 -8 16 -15 37 -15 47 0 9 -7 17 -15 17 -11 0 -15 -12 -15 -50 l0
-50 -165 0 c-103 0 -165 -4 -165 -10 0 -5 20 -10 44 -10 57 0 76 -8 76 -30 0
-31 26 -44 59 -30 23 9 42 9 81 1 84 -18 116 -14 152 18 41 36 45 90 10 139
-19 26 -42 42 -42 30z m-202 -161 c2 -12 -3 -17 -17 -17 -12 0 -21 6 -21 13 0
31 32 34 38 4z"/>
<path d="M1737 2082 c-13 -14 -17 -38 -17 -100 0 -80 0 -81 -27 -84 -36 -4
-41 -26 -7 -34 41 -11 54 15 54 111 0 57 5 87 16 103 18 27 4 29 -19 4z"/>
<path d="M1132 1318 c-7 -7 -12 -38 -12 -69 0 -55 -11 -81 -25 -59 -9 15 -67
12 -89 -5 -11 -8 -28 -15 -38 -15 -15 0 -18 9 -18 64 0 63 -12 92 -24 60 -3
-9 -6 -47 -6 -85 l0 -69 38 0 c26 0 45 7 57 20 23 26 46 25 79 -1 16 -12 31
-18 36 -13 5 5 10 41 12 79 2 39 8 78 12 88 9 20 -4 23 -22 5z"/>
<path d="M1176 1294 c-3 -9 -6 -47 -6 -85 0 -68 0 -69 26 -69 21 0 25 3 19 18
-16 38 -16 50 0 66 9 9 31 16 48 16 38 0 65 14 48 24 -10 7 -48 2 -93 -10 -14
-4 -18 1 -18 25 0 33 -14 42 -24 15z"/>
<path d="M1035 1141 c-8 -15 3 -31 21 -31 9 0 14 7 12 17 -4 20 -24 28 -33 14z"/>
<path d="M2126 2561 l-39 -40 27 -7 c15 -3 47 -4 71 -1 34 5 48 2 69 -14 14
-11 26 -29 26 -40 0 -23 -8 -24 -32 -2 -17 15 -18 14 -18 -16 0 -17 -7 -48
-15 -68 -8 -20 -13 -38 -11 -41 3 -2 19 1 37 7 18 6 48 11 67 11 28 0 33 3 24
12 -17 17 -15 48 3 48 20 0 121 -120 178 -211 57 -92 117 -228 146 -330 12
-41 21 -78 21 -81 0 -3 -26 -9 -57 -13 -32 -4 -62 -9 -66 -12 -15 -9 13 -30
36 -26 13 3 36 -6 56 -21 63 -47 74 -34 54 69 -39 205 -151 434 -285 580 -28
30 -61 58 -74 61 -15 4 -30 19 -38 38 -12 29 -118 136 -135 136 -4 0 -24 -18
-45 -39z m60 -20 c-8 -13 -36 -15 -36 -3 0 4 5 13 12 20 14 14 34 0 24 -17z
m107 -135 c7 -18 -1 -26 -25 -26 -18 0 -25 20 -11 33 11 12 31 8 36 -7z m391
-662 c4 -9 4 -19 1 -22 -6 -6 -35 18 -35 29 0 16 28 10 34 -7z"/>
<path d="M1325 2560 c-14 -23 22 -30 167 -30 137 0 174 7 153 28 -13 13 -312
14 -320 2z"/>
<path d="M680 2527 c0 -16 101 -117 118 -117 22 0 13 15 -45 73 -57 58 -73 67
-73 44z"/>
<path d="M590 2444 c0 -14 69 -152 79 -159 19 -11 27 4 13 23 -24 34 -56 102
-50 107 3 4 29 -5 57 -19 51 -27 81 -33 81 -17 0 11 -134 71 -160 71 -11 0
-20 -3 -20 -6z"/>
<path d="M485 2330 c-17 -25 -25 -46 -21 -57 6 -14 9 -12 22 13 23 44 29 47
55 25 20 -17 22 -23 12 -39 -16 -26 -4 -36 19 -16 14 14 20 14 33 4 14 -12 14
-15 -1 -37 -25 -39 -5 -41 26 -3 l28 34 -21 15 c-12 8 -45 34 -73 58 l-51 43
-28 -40z"/>
<path d="M412 2219 c2 -6 24 -23 48 -36 62 -34 87 -60 73 -74 -17 -17 -48 -6
-51 19 -3 19 -9 22 -51 22 -28 0 -55 -6 -67 -16 -18 -14 -15 -15 33 -9 50 5
53 5 68 -25 24 -47 50 -39 103 31 11 15 3 22 -62 58 -77 42 -101 50 -94 30z"/>
<path d="M325 2066 c-20 -31 -16 -85 8 -100 14 -9 28 -5 68 18 38 21 54 25 62
17 9 -9 8 -19 -5 -41 -20 -35 -6 -50 16 -18 29 42 15 98 -24 98 -9 0 -31 -11
-50 -25 -63 -47 -91 -24 -50 43 16 26 17 32 5 32 -8 0 -22 -11 -30 -24z"/>
<path d="M275 1932 c-14 -14 -1 -30 33 -40 20 -7 58 -18 84 -26 49 -15 79 -4
36 13 -88 37 -148 58 -153 53z"/>
<path d="M407 1810 c-6 -24 -43 -26 -110 -6 -30 9 -49 10 -53 4 -9 -15 1 -20
74 -38 84 -20 93 -43 36 -87 -31 -23 -46 -28 -86 -26 -36 2 -48 -1 -48 -12 0
-10 11 -15 33 -15 20 0 51 -13 84 -35 58 -39 63 -41 63 -22 0 6 -19 23 -42 36
l-41 23 31 13 c42 18 60 49 68 123 6 60 2 83 -9 42z"/>
<path d="M2515 1691 c-8 -15 3 -31 21 -31 9 0 14 7 12 17 -4 20 -24 28 -33 14z"/>
<path d="M2710 1574 l0 -36 -92 3 c-67 3 -92 1 -95 -8 -3 -9 7 -13 34 -13 21
0 68 -3 106 -7 l67 -6 0 52 c0 28 -4 51 -10 51 -5 0 -10 -16 -10 -36z"/>
<path d="M257 1452 c-42 -46 -39 -125 6 -157 31 -22 89 -19 121 6 21 17 26 29
26 65 0 37 -6 51 -29 75 -35 35 -97 41 -124 11z m113 -32 c34 -34 22 -83 -25
-107 -48 -24 -105 26 -91 81 11 45 81 61 116 26z"/>
<path d="M2516 1461 c6 -6 50 -15 98 -18 83 -6 87 -7 82 -27 -3 -12 -6 -29 -6
-39 0 -17 -6 -18 -57 -11 -53 6 -57 6 -44 -10 8 -9 28 -16 51 -16 20 0 39 -3
43 -6 8 -8 -21 -87 -36 -96 -7 -4 -33 -8 -59 -8 -35 0 -54 -6 -77 -26 -42 -35
-29 -50 17 -19 37 25 122 36 122 15 0 -19 -51 -143 -87 -212 -54 -104 -118
-187 -234 -304 l-102 -105 -38 31 c-43 34 -49 36 -49 16 0 -8 16 -27 35 -42
22 -17 35 -35 35 -49 0 -24 -36 -59 -71 -70 -10 -4 -19 -11 -19 -16 0 -31 94
32 111 74 7 18 59 80 115 139 56 58 126 139 154 180 110 154 199 382 216 549
l7 69 -39 0 c-22 0 -70 3 -109 6 -53 5 -67 4 -59 -5z"/>
<path d="M2740 1340 c0 -11 7 -20 15 -20 8 0 15 9 15 20 0 11 -7 20 -15 20 -8
0 -15 -9 -15 -20z"/>
<path d="M365 1240 c-33 -11 -70 -20 -82 -20 -25 0 -28 -7 -14 -29 8 -12 14
-13 36 -3 38 17 52 15 60 -10 7 -22 8 -21 14 7 8 40 46 47 55 11 6 -23 26 -38
26 -20 0 16 -24 84 -29 83 -3 0 -33 -9 -66 -19z"/>
<path d="M460 1054 c-19 -13 -54 -31 -77 -40 -24 -9 -43 -18 -43 -21 0 -2 12
-21 26 -43 37 -56 70 -63 104 -22 15 18 34 32 43 32 28 0 32 45 7 85 -12 19
-22 35 -23 35 -1 -1 -18 -12 -37 -26z m50 -38 c0 -33 -17 -42 -41 -21 -18 17
-18 19 -1 31 26 20 42 17 42 -10z m-55 -36 c7 -23 -10 -50 -31 -50 -14 0 -44
27 -44 39 0 9 39 29 57 30 6 1 15 -8 18 -19z"/>
<path d="M540 885 c-19 -7 -43 -14 -52 -14 -9 -1 -29 -6 -44 -11 -41 -16 -17
-33 25 -19 30 11 35 9 59 -14 l26 -26 -22 -24 c-22 -24 -29 -47 -14 -47 15 0
39 32 71 93 41 79 30 92 -49 62z m40 -35 c-12 -22 -35 -26 -46 -9 -8 13 13 29
39 29 15 0 16 -3 7 -20z"/>
<path d="M657 798 c-9 -13 -34 -43 -57 -68 -22 -24 -40 -48 -40 -52 0 -19 28
-6 49 23 l23 31 39 -38 40 -39 -37 -31 c-27 -22 -34 -33 -25 -39 19 -11 134
106 129 131 -3 16 -6 15 -30 -11 l-28 -29 -35 34 -35 34 25 26 c22 23 24 29
12 39 -12 9 -18 7 -30 -11z"/>
<path d="M778 610 c-27 -38 -48 -74 -48 -80 0 -26 29 -3 64 51 38 60 67 74 74
36 3 -12 -6 -21 -28 -28 -30 -11 -31 -13 -28 -67 4 -72 28 -85 28 -15 0 45 2
49 30 60 19 7 30 18 30 30 0 18 -55 84 -69 83 -3 -1 -27 -32 -53 -70z"/>
<path d="M2070 586 c0 -13 9 -35 20 -49 24 -30 23 -31 -76 -80 l-72 -36 -17
45 c-12 33 -20 43 -28 35 -8 -8 -4 -26 11 -64 12 -29 22 -56 22 -60 0 -13 -27
-7 -40 8 -8 9 -20 13 -29 9 -44 -17 -181 -45 -214 -42 -25 1 -41 -3 -47 -12
-15 -24 -12 -31 13 -26 173 38 250 48 274 35 29 -16 56 -3 61 29 2 14 27 33
80 61 124 64 120 59 86 119 -32 57 -44 65 -44 28z"/>
<path d="M926 514 c-36 -30 -66 -62 -66 -71 0 -16 11 -10 48 25 32 30 77 0 70
-47 -3 -19 1 -36 9 -42 17 -15 20 -4 27 104 7 107 3 109 -88 31z m57 -25 c-4
-4 -15 -4 -23 1 -12 7 -11 12 5 31 l20 21 3 -22 c2 -12 0 -26 -5 -31z"/>
<path d="M1103 518 c-12 -15 -53 -136 -53 -155 0 -7 6 -13 13 -13 7 0 19 22
26 49 7 28 21 66 30 85 17 33 17 46 1 46 -4 0 -12 -6 -17 -12z"/>
<path d="M1176 492 c-6 -10 -46 -153 -46 -164 0 -5 6 -8 14 -8 9 0 16 17 21
46 14 95 18 95 61 11 21 -42 43 -76 48 -74 5 2 19 40 31 85 16 61 19 82 9 82
-7 0 -18 -24 -25 -55 -7 -30 -15 -55 -19 -55 -3 0 -19 27 -35 60 -30 64 -49
87 -59 72z"/>
<path d="M1710 466 c0 -18 16 -29 30 -21 13 8 1 35 -16 35 -8 0 -14 -6 -14
-14z"/>
<path d="M1445 404 c-13 -20 -14 -28 -4 -40 24 -29 66 -3 54 35 -9 30 -32 32
-50 5z"/>
<path d="M2054 419 c-10 -17 13 -36 27 -22 12 12 4 33 -11 33 -5 0 -12 -5 -16
-11z"/>
<path d="M2007 403 c-4 -3 -7 -12 -7 -20 0 -15 26 -18 34 -4 7 11 -18 33 -27
24z"/>
</g>
</svg>
